<svg xmlns="http://www.w3.org/2000/svg" xmlns:xlink="http://www.w3.org/1999/xlink" width="500" zoomAndPan="magnify" viewBox="0 0 375 374.999991" height="500" preserveAspectRatio="xMidYMid meet" version="1.0"><defs><clipPath id="df831a6c70"><path d="M 72.300781 72.300781 L 302.699219 72.300781 L 302.699219 302.699219 L 72.300781 302.699219 Z M 72.300781 72.300781 " clip-rule="nonzero"/></clipPath><clipPath id="384f635549"><path d="M 85.921875 168.902344 C 92.625 176.960938 92.640625 198.347656 85.976562 206.4375 C 77.59375 216.609375 72.574219 229.625 72.574219 243.773438 C 72.574219 276.449219 99.042969 302.699219 131.363281 302.699219 C 145.585938 302.699219 158.605469 297.699219 168.769531 289.34375 C 176.882812 282.675781 198.394531 282.675781 206.507812 289.339844 C 216.675781 297.699219 229.691406 302.699219 243.917969 302.699219 C 276.238281 302.699219 302.699219 276.449219 302.699219 243.773438 C 302.699219 229.519531 297.523438 216.417969 289.003906 206.210938 C 282.308594 198.191406 282.308594 177.082031 288.992188 169.054688 C 297.519531 158.816406 302.699219 145.640625 302.699219 131.226562 C 302.699219 98.832031 276.238281 72.300781 243.917969 72.300781 C 229.816406 72.300781 216.949219 77.191406 206.835938 85.378906 C 198.601562 92.046875 176.265625 91.972656 168.03125 85.304688 C 157.972656 77.164062 145.144531 72.300781 131.082031 72.300781 C 98.761719 72.300781 72.300781 98.832031 72.300781 131.226562 C 72.300781 145.566406 77.429688 158.683594 85.921875 168.902344 Z M 85.921875 168.902344 " clip-rule="nonzero"/></clipPath><clipPath id="89f6156015"><path d="M 0.300781 0.300781 L 230.699219 0.300781 L 230.699219 230.699219 L 0.300781 230.699219 Z M 0.300781 0.300781 " clip-rule="nonzero"/></clipPath><clipPath id="46ede9837e"><path d="M 13.921875 96.902344 C 20.625 104.960938 20.640625 126.347656 13.976562 134.4375 C 5.59375 144.609375 0.574219 157.625 0.574219 171.773438 C 0.574219 204.449219 27.042969 230.699219 59.363281 230.699219 C 73.585938 230.699219 86.605469 225.699219 96.769531 217.34375 C 104.882812 210.675781 126.394531 210.675781 134.507812 217.339844 C 144.675781 225.699219 157.691406 230.699219 171.917969 230.699219 C 204.238281 230.699219 230.699219 204.449219 230.699219 171.773438 C 230.699219 157.519531 225.523438 144.417969 217.003906 134.210938 C 210.308594 126.191406 210.308594 105.082031 216.992188 97.054688 C 225.519531 86.816406 230.699219 73.640625 230.699219 59.226562 C 230.699219 26.832031 204.238281 0.300781 171.917969 0.300781 C 157.816406 0.300781 144.949219 5.191406 134.835938 13.378906 C 126.601562 20.046875 104.265625 19.972656 96.03125 13.304688 C 85.972656 5.164062 73.144531 0.300781 59.082031 0.300781 C 26.761719 0.300781 0.300781 26.832031 0.300781 59.226562 C 0.300781 73.566406 5.429688 86.683594 13.921875 96.902344 Z M 13.921875 96.902344 " clip-rule="nonzero"/></clipPath><clipPath id="3a7efd6325"><rect x="0" width="231" y="0" height="231"/></clipPath><clipPath id="c870112de7"><path d="M 124.363281 124.363281 L 250.636719 124.363281 L 250.636719 250.636719 L 124.363281 250.636719 Z M 124.363281 124.363281 " clip-rule="nonzero"/></clipPath><clipPath id="cbaf917186"><path d="M 187.5 124.363281 C 152.628906 124.363281 124.363281 152.628906 124.363281 187.5 C 124.363281 222.371094 152.628906 250.636719 187.5 250.636719 C 222.371094 250.636719 250.636719 222.371094 250.636719 187.5 C 250.636719 152.628906 222.371094 124.363281 187.5 124.363281 Z M 187.5 124.363281 " clip-rule="nonzero"/></clipPath><clipPath id="fab17637b4"><path d="M 0.363281 0.363281 L 126.636719 0.363281 L 126.636719 126.636719 L 0.363281 126.636719 Z M 0.363281 0.363281 " clip-rule="nonzero"/></clipPath><clipPath id="e87660708f"><path d="M 63.5 0.363281 C 28.628906 0.363281 0.363281 28.628906 0.363281 63.5 C 0.363281 98.371094 28.628906 126.636719 63.5 126.636719 C 98.371094 126.636719 126.636719 98.371094 126.636719 63.5 C 126.636719 28.628906 98.371094 0.363281 63.5 0.363281 Z M 63.5 0.363281 " clip-rule="nonzero"/></clipPath><clipPath id="967fa9a8f9"><rect x="0" width="127" y="0" height="127"/></clipPath></defs><g clip-path="url(#df831a6c70)"><g clip-path="url(#384f635549)"><g transform="matrix(1, 0, 0, 1, 72, 72)"><g clip-path="url(#3a7efd6325)"><g clip-path="url(#89f6156015)"><g clip-path="url(#46ede9837e)"><path fill="#bed8b9" d="M 0.300781 0.300781 L 230.699219 0.300781 L 230.699219 230.699219 L 0.300781 230.699219 Z M 0.300781 0.300781 " fill-opacity="1" fill-rule="nonzero"/></g></g></g></g></g></g><g clip-path="url(#c870112de7)"><g clip-path="url(#cbaf917186)"><g transform="matrix(1, 0, 0, 1, 124, 124)"><g clip-path="url(#967fa9a8f9)"><g clip-path="url(#fab17637b4)"><g clip-path="url(#e87660708f)"><path fill="#faf9f6" d="M 0.363281 0.363281 L 126.636719 0.363281 L 126.636719 126.636719 L 0.363281 126.636719 Z M 0.363281 0.363281 " fill-opacity="1" fill-rule="nonzero"/></g></g></g></g></g></g></svg>