<svg xmlns="http://www.w3.org/2000/svg" xmlns:xlink="http://www.w3.org/1999/xlink" width="500" zoomAndPan="magnify" viewBox="0 0 375 374.999991" height="500" preserveAspectRatio="xMidYMid meet" version="1.0"><defs><clipPath id="7259845eb5"><path d="M 85.226562 46.433594 L 315.628906 46.433594 L 315.628906 276.835938 L 85.226562 276.835938 Z M 85.226562 46.433594 " clip-rule="nonzero"/></clipPath><clipPath id="08a51023b6"><path d="M 98.851562 143.035156 C 105.554688 151.09375 105.566406 172.480469 98.902344 180.570312 C 90.523438 190.746094 85.503906 203.757812 85.503906 217.910156 C 85.503906 250.585938 111.972656 276.835938 144.292969 276.835938 C 158.515625 276.835938 171.53125 271.832031 181.699219 263.476562 C 189.808594 256.8125 211.324219 256.808594 219.433594 263.476562 C 229.601562 271.832031 242.621094 276.835938 256.84375 276.835938 C 289.164062 276.835938 315.628906 250.585938 315.628906 217.910156 C 315.628906 203.652344 310.453125 190.550781 301.929688 180.347656 C 295.234375 172.328125 295.234375 151.214844 301.921875 143.1875 C 310.449219 132.949219 315.628906 119.773438 315.628906 105.359375 C 315.628906 72.964844 289.164062 46.433594 256.84375 46.433594 C 242.742188 46.433594 229.875 51.328125 219.761719 59.515625 C 211.53125 66.179688 189.191406 66.105469 180.960938 59.441406 C 170.902344 51.296875 158.070312 46.433594 144.007812 46.433594 C 111.691406 46.433594 85.226562 72.964844 85.226562 105.359375 C 85.226562 119.699219 90.355469 132.820312 98.851562 143.035156 Z M 98.851562 143.035156 " clip-rule="nonzero"/></clipPath><clipPath id="536607409c"><path d="M 0.226562 0.433594 L 230.628906 0.433594 L 230.628906 230.835938 L 0.226562 230.835938 Z M 0.226562 0.433594 " clip-rule="nonzero"/></clipPath><clipPath id="9bba35e73d"><path d="M 13.851562 97.035156 C 20.554688 105.09375 20.566406 126.480469 13.902344 134.570312 C 5.523438 144.746094 0.503906 157.757812 0.503906 171.910156 C 0.503906 204.585938 26.972656 230.835938 59.292969 230.835938 C 73.515625 230.835938 86.53125 225.832031 96.699219 217.476562 C 104.808594 210.8125 126.324219 210.808594 134.433594 217.476562 C 144.601562 225.832031 157.621094 230.835938 171.84375 230.835938 C 204.164062 230.835938 230.628906 204.585938 230.628906 171.910156 C 230.628906 157.652344 225.453125 144.550781 216.929688 134.347656 C 210.234375 126.328125 210.234375 105.214844 216.921875 97.1875 C 225.449219 86.949219 230.628906 73.773438 230.628906 59.359375 C 230.628906 26.964844 204.164062 0.433594 171.84375 0.433594 C 157.742188 0.433594 144.875 5.328125 134.761719 13.515625 C 126.53125 20.179688 104.191406 20.105469 95.960938 13.441406 C 85.902344 5.296875 73.070312 0.433594 59.007812 0.433594 C 26.691406 0.433594 0.226562 26.964844 0.226562 59.359375 C 0.226562 73.699219 5.355469 86.820312 13.851562 97.035156 Z M 13.851562 97.035156 " clip-rule="nonzero"/></clipPath><clipPath id="e5acb26c8a"><rect x="0" width="231" y="0" height="231"/></clipPath><clipPath id="9ee7c4f64c"><path d="M 137.289062 98.496094 L 263.566406 98.496094 L 263.566406 224.769531 L 137.289062 224.769531 Z M 137.289062 98.496094 " clip-rule="nonzero"/></clipPath><clipPath id="c13c76d144"><path d="M 200.425781 98.496094 C 165.558594 98.496094 137.289062 126.765625 137.289062 161.632812 C 137.289062 196.503906 165.558594 224.769531 200.425781 224.769531 C 235.296875 224.769531 263.566406 196.503906 263.566406 161.632812 C 263.566406 126.765625 235.296875 98.496094 200.425781 98.496094 Z M 200.425781 98.496094 " clip-rule="nonzero"/></clipPath><clipPath id="6d02acd439"><path d="M 0.289062 0.496094 L 126.566406 0.496094 L 126.566406 126.769531 L 0.289062 126.769531 Z M 0.289062 0.496094 " clip-rule="nonzero"/></clipPath><clipPath id="5434dd229e"><path d="M 63.425781 0.496094 C 28.558594 0.496094 0.289062 28.765625 0.289062 63.632812 C 0.289062 98.503906 28.558594 126.769531 63.425781 126.769531 C 98.296875 126.769531 126.566406 98.503906 126.566406 63.632812 C 126.566406 28.765625 98.296875 0.496094 63.425781 0.496094 Z M 63.425781 0.496094 " clip-rule="nonzero"/></clipPath><clipPath id="e976fc58fd"><rect x="0" width="127" y="0" height="127"/></clipPath></defs><g clip-path="url(#7259845eb5)"><g clip-path="url(#08a51023b6)"><g transform="matrix(1, 0, 0, 1, 85, 46)"><g clip-path="url(#e5acb26c8a)"><g clip-path="url(#536607409c)"><g clip-path="url(#9bba35e73d)"><path fill="#333333" d="M 0.226562 0.433594 L 230.628906 0.433594 L 230.628906 230.835938 L 0.226562 230.835938 Z M 0.226562 0.433594 " fill-opacity="1" fill-rule="nonzero"/></g></g></g></g></g></g><g clip-path="url(#9ee7c4f64c)"><g clip-path="url(#c13c76d144)"><g transform="matrix(1, 0, 0, 1, 137, 98)"><g clip-path="url(#e976fc58fd)"><g clip-path="url(#6d02acd439)"><g clip-path="url(#5434dd229e)"><path fill="#eeeeee" d="M 0.289062 0.496094 L 126.566406 0.496094 L 126.566406 126.769531 L 0.289062 126.769531 Z M 0.289062 0.496094 " fill-opacity="1" fill-rule="nonzero"/></g></g></g></g></g></g></svg>